<svg xmlns="http://www.w3.org/2000/svg" viewBox="0 0 32 32" id="beach"><path d="M9.135 7.396a.5.5 0 0 1-.492-.413l-.159-.896a.5.5 0 0 1 .985-.175l.159.896a.5.5 0 0 1-.493.588zm4.099 23.099a.5.5 0 0 1-.492-.413L9.707 12.979a.5.5 0 0 1 .985-.175l3.035 17.103a.5.5 0 0 1-.493.588z"></path><path d="M29.25 30.5h-27a.5.5 0 0 1 0-1h27a.5.5 0 0 1 0 1zm-4-5h-18a.499.499 0 0 1-.416-.223l-4-6a.5.5 0 1 1 .832-.554L7.518 24.5H25.25a.5.5 0 0 1 0 1z"></path><path d="M5.25 30.5a.501.501 0 0 1-.465-.686l2-5a.5.5 0 1 1 .929.371l-2 5a.5.5 0 0 1-.464.315zm22 0a.5.5 0 0 1-.464-.314l-2-5a.5.5 0 1 1 .929-.371l2 5a.5.5 0 0 1-.465.685zM2.322 14.79a.5.5 0 0 1-.492-.413c-.309-1.737.293-3.518 1.693-5.016 1.363-1.458 3.331-2.478 5.541-2.87 4.614-.821 8.878 1.386 9.505 4.915a.498.498 0 0 1-.405.58L2.41 14.782a.533.533 0 0 1-.088.008zm8.68-7.471c-.575 0-1.166.051-1.764.157-1.998.355-3.768 1.267-4.985 2.568-1.042 1.115-1.563 2.398-1.496 3.661l14.709-2.61c-.7-2.277-3.343-3.776-6.464-3.776z"></path><path d="M5.276 14.265a.5.5 0 0 1-.492-.413c-.301-1.693-.031-3.386.759-4.769.807-1.411 2.057-2.332 3.52-2.591 2.989-.528 5.925 1.911 6.551 5.439a.498.498 0 0 1-.405.58l-9.846 1.747a.51.51 0 0 1-.087.007zm4.612-6.846c-.215 0-.432.019-.649.057-1.167.207-2.171.954-2.828 2.104-.598 1.046-.845 2.309-.712 3.602l8.826-1.566c-.629-2.464-2.563-4.197-4.637-4.197z"></path><path d="M8.229 13.741a.5.5 0 0 1-.492-.413c-.29-1.629-.349-3.206-.167-4.44.267-1.81.959-2.302 1.493-2.397 1.601-.292 3.033 2.783 3.597 5.963a.498.498 0 0 1-.405.58l-3.938.699a.437.437 0 0 1-.088.008zm1.047-6.268a.234.234 0 0 0-.038.003c-.159.028-.506.391-.678 1.558-.148 1.008-.119 2.28.082 3.626l2.94-.521c-.635-3.095-1.805-4.666-2.306-4.666zM24.75 9.5c-1.378 0-2.5-1.122-2.5-2.5s1.122-2.5 2.5-2.5 2.5 1.122 2.5 2.5-1.122 2.5-2.5 2.5zm0-4c-.827 0-1.5.673-1.5 1.5s.673 1.5 1.5 1.5 1.5-.673 1.5-1.5-.673-1.5-1.5-1.5zm0-2a.5.5 0 0 1-.5-.5V2a.5.5 0 0 1 1 0v1a.5.5 0 0 1-.5.5zm0 9a.5.5 0 0 1-.5-.5v-1a.5.5 0 0 1 1 0v1a.5.5 0 0 1-.5.5zm5-5h-1a.5.5 0 0 1 0-1h1a.5.5 0 0 1 0 1zm-9 0h-1a.5.5 0 0 1 0-1h1a.5.5 0 0 1 0 1zm6.829-2.829a.5.5 0 0 1-.354-.853l.707-.707a.5.5 0 0 1 .707.707l-.707.707a.496.496 0 0 1-.353.146zm-6.365 6.365a.5.5 0 0 1-.354-.853l.707-.707a.5.5 0 0 1 .707.707l-.707.707a.498.498 0 0 1-.353.146zm7.072 0a.502.502 0 0 1-.354-.146l-.707-.707a.5.5 0 0 1 .707-.707l.707.707a.5.5 0 0 1-.353.853zm-6.365-6.365a.502.502 0 0 1-.354-.146l-.707-.707a.5.5 0 0 1 .707-.707l.707.707a.5.5 0 0 1-.353.853z"></path></svg>