<svg xmlns="http://www.w3.org/2000/svg" data-name="Layer 2" viewBox="0 0 128 128" id="boy"><path d="M111.4088,115.0269c-1.7479-5.33-3.1341-10.77-4.8458-16.1111-1.3156-4.1051-2.5255-8.889-6.3219-11.3274-4.6147-2.964-10.3243-4.9759-15.4965-6.7056a40.4534,40.4534,0,0,1-5.1063-1.767,1.3827,1.3827,0,0,0-.5437-.3029A6.9161,6.9161,0,0,1,75.98,74.0755c-.6974-2.9119-.5062-6.3267-.563-9.3646,5.5058-4.4908,7.0315-12.1195,7.0185-19.8328,2.1627-.64,3.98-3.8177,3.9511-5.8605a4.37,4.37,0,0,0-.5926-2.1159c5.5363-5.468-1.52-17.6736-6.278-21.3377-6.5-5.0054-18.2954-6.7377-23.4583.984-.3739.5593.5206,1.27.9448.729C66.9464,4.5931,90.577,21.6082,83.92,35.1279A3.9151,3.9151,0,0,0,81.713,34.74c-.0838-.6677-.17-1.3276-.26-1.9705-.1306-.9388-1.4053-.997-1.9492-.42-.2531-.5849-.5941-1.1535-.8177-1.71a27.8877,27.8877,0,0,1-1.1614-3.6127c-.2515-1.0027-1.6853-.5626-1.5218.42A23.43,23.43,0,0,0,77.0519,31.58c.3824,1.06.7189,2.3452,1.7587,2.9138a.6352.6352,0,0,0,.608.014c1.2539,11.365,3.1987,26.7542-10.0347,31.513-7.1673,2.5774-15.51-.0042-19.0235-7.0512-2.9946-6.0059-2.3852-14.1843-2.5841-21.0945a.705.705,0,0,0,.9358.2379c2.9082-1.5336,4.6569-5.6951,5.5553-8.6693.2148-.7109-.9166-1.226-1.228-.5177a30.1086,30.1086,0,0,1-2.3636,4.3005c-.8807,1.3524-2.1738,2.4758-2.9237,3.8938-.021-.5432-.0467-1.08-.0824-1.6035a.6715.6715,0,0,0-1.3422,0c-.0015.3327-.0082.676-.0138,1.0168-1.1919-3.0178-2.1624-5.8106-1.1739-9.2443.94-3.2659,3.9687-10.047,8.5869-7.44a.5967.5967,0,0,0,.4613.0638,1.3376,1.3376,0,0,0,.7082.43.4518.4518,0,0,0,.5382-.3056,1.1253,1.1253,0,0,0,.0085-.6717,26.0268,26.0268,0,0,0,.08-2.76,15.0824,15.0824,0,0,1,.57-3.3228.5023.5023,0,0,0-.9139-.3852,9.7824,9.7824,0,0,0-1.3378,4.2993,12.6929,12.6929,0,0,0-1.9488-1.6343c-.5582-.38-1.2566.5063-.729.9448a14.3252,14.3252,0,0,1,1.11,1.0356c-2.6431-.5464-5.3754,2.1175-6.7978,4.4545-3.2985,5.4194-3.7276,10.0959-1.1341,15.6573-1.6462.8251-2.6,3.0925-2.5544,4.9326.0556,2.231,1.8589,5.8157,4.36,5.3956.1709,5.01.964,9.9411,3.5963,13.8162a15.3381,15.3381,0,0,0,2.8254,3.1292c-.0776,2.5242-.1292,5.0491-.364,7.5655-.5127,5.4934-3.5345,6.6241-8.066,8.0935-5.4683,1.7731-11.5163,3.8766-16.38,7.0011-3.6063,2.3167-4.766,6.6132-6.0572,10.5191-1.8735,5.667-3.3085,11.47-5.1791,17.1382-.3264.9894.8973,1.5133,1.5647,1.015,6.7947,2.1836,14.1556,2.6623,21.2094,3.4147a221.0976,221.0976,0,0,0,24.3009.9848,253.2766,253.2766,0,0,0,47.0987-4.2235,1.1348,1.1348,0,0,0,.1416-.0258c.1368-.0267.2752-.0478.4119-.0748C111.8862,116.21,111.8781,115.2932,111.4088,115.0269Zm-28.2936-78.45a1.0424,1.0424,0,0,0,1.4127,1.3051,2.5687,2.5687,0,0,1-.0145,2.3035A6.655,6.655,0,0,1,82.39,42.6559c-.0825-2.2215-.2713-4.4234-.5119-6.5364A5.46,5.46,0,0,1,83.1152,36.5765Zm-37.1637,9.001a2.947,2.947,0,0,1-2.17-2.0914c-.58-1.3615-.27-3.895,1.2391-4.593a1.0816,1.0816,0,0,0,1.231.2c-.0659,2.1-.1491,4.2945-.1482,6.507Zm6.8521,33.0738c1.7853-3.0607,1.4535-8.6537,1.1561-12.6868a18.2079,18.2079,0,0,0,13.8339,2.2389,18.2614,18.2614,0,0,0,6.2685-2.5126c-.298,4.09-.6583,9.706,1.1343,12.9605a4.9884,4.9884,0,0,0,1.2838,1.472c-8.6958,5.9215-17.7948,5.1319-27.2135,1.2727A7.1282,7.1282,0,0,0,52.8036,78.6513ZM18.6115,115.1926c1.7416-5.7948,3.34-11.6428,5.46-17.3128,1.6249-4.346,2.8634-7.1792,7.18-9.5406A81.2694,81.2694,0,0,1,42.0758,83.6c1.4293-.5282,3.3747-.928,5.2526-1.5073,8.9912,7.595,22.3243,5.8234,31.3352-.7092,2.4142,1.0333,5.3775,1.5206,7.2606,2.2165a105.097,105.097,0,0,1,9.9889,4.3267c4.6432,2.2862,6.2724,5.2956,8.0151,9.9532,2.1143,5.6508,3.7085,11.48,5.4434,17.2558-14.93,1.66-29.757,3.0551-44.8012,3.2287C49.2336,118.5413,33.6531,118.3618,18.6115,115.1926Z"></path><path d="M58.4955 55.8823a6.4941 6.4941 0 005.56 1.62 5.7429 5.7429 0 004.1588-3.2119c.23-.6218-.5918-.9233-1.0051-.5851-1.111.9092-1.8894 1.7967-3.36 2.12a5.7217 5.7217 0 01-4.5613-.9694C58.6919 54.4252 57.9158 55.4175 58.4955 55.8823zM63.2028 41.8323a.41.41 0 00-.8193 0 12.6583 12.6583 0 01-1.0443 4.3583 7.5648 7.5648 0 00-.6983 2.1706c-.17 1.5678 1.9344 2.3291 3.25 2.56a.4133.4133 0 00.3986-.6846 6.8393 6.8393 0 00-2.5685-1.6431c.1847-1.08 1.0065-2.2972 1.2625-3.3309A10.2891 10.2891 0 0063.2028 41.8323zM75.1751 32.1722c-.4925-1.0184-1.8243-1.4979-2.66-2.2095a7.105 7.105 0 01-2.1538-2.97.6647.6647 0 00-1.2807.353 6.4929 6.4929 0 002.0072 3.518c.9036.8616 2.29 2.1673 3.6014 2.1548A.57.57 0 0075.1751 32.1722zM64.519 27.3168a.7535.7535 0 00-1.4732.1994A6.5937 6.5937 0 0065.573 32.35c1.1843.9817 3.5452 2.4868 5.0782 1.5486a.5383.5383 0 00.1905-.7269c-.735-1.1524-2.4119-1.3276-3.5227-2.0355A6.504 6.504 0 0164.519 27.3168zM58.4637 28.1435c-.3293-.7213-1.2917-.165-1.1851.5.52 3.2409 4.01 7.3051 7.643 6.55a.6873.6873 0 00.1624-1.2424c-1.2988-.804-2.7346-1.168-3.9314-2.166A10.1558 10.1558 0 0158.4637 28.1435zM51.7219 39.9717c-.2817.6883.7024 1.1094 1.1653.6784a2.2288 2.2288 0 012.7382-.48.6651.6651 0 00.8026-1.04A2.9375 2.9375 0 0051.7219 39.9717zM70.2956 37.7271c-1.0466.1645-2.292 1.2982-1.7766 2.4183a.69.69 0 00.942.247c.4274-.3154.5315-.9342 1.0764-1.0866.591-.1654.8857.3588 1.4.4311.2635.0371.6294-.0612.6754-.3834C72.78 38.1883 71.26 37.5757 70.2956 37.7271zM78.8339 84.8126c-4.7765 2.8009-9.0023 5.2661-14.751 5.4464-5.389.1692-13.1181-1.2277-17.4573-4.6737A.7326.7326 0 0045.59 86.6207c3.5872 4.5876 12.2378 5.6883 17.7052 5.7329 5.8282.0476 12.4421-1.973 16.4572-6.35A.7615.7615 0 0078.8339 84.8126z"></path></svg>