<svg xmlns="http://www.w3.org/2000/svg" width="32" height="32" viewBox="0 0 32 32" id="couple"><g transform="translate(0 -1020.362)"><path fill="#3b3c3d" fill-rule="evenodd" d="m 18.932283,1038.1554 v 1.9386 c 0,0.8077 0.988006,1.9752 1.903445,2.4232 0.428863,0.2102 0.998665,0.2102 1.427528,0 0.915364,-0.448 1.903408,-1.6155 1.903408,-2.4232 v -1.9386 h -0.20674 c -0.477015,0 -0.934451,-0.1931 -1.271736,-0.5365 l -0.424932,-0.4328 -0.42497,0.4328 c -0.337134,0.3436 -0.794721,0.5365 -1.271698,0.5365 z"></path><path fill="#3b3c3d" d="m 21.690128,1033.3565 c 2.214766,3e-4 3.994167,1.784 3.994167,3.998 v 3.4981 l -1.15234,0.011 c 0.165921,-0.3148 0.275528,-0.6458 0.275528,-0.9961 v -2 c 0,-0.2767 -0.224882,-0.501 -0.501959,-0.5 h -0.212788 c -0.368882,0 -0.721663,-0.1455 -0.982412,-0.4063 l -0.449197,-0.4433 c -0.107717,-0.1107 -0.26041,-0.1655 -0.414085,-0.1485 -0.112252,0.015 -0.216189,0.067 -0.294803,0.1485 l -0.443377,0.4433 c -0.260787,0.2608 -0.613644,0.4063 -0.982412,0.4063 h -1.718741 c -0.277039,-10e-4 -0.501996,0.223 -0.501959,0.5 v 2 c 0,0.3504 0.109229,0.6813 0.275528,0.9961 l -0.890646,-0.011 v -3.4981 c 6.81e-4,-2.214 1.785222,-3.9984 3.999988,-3.998 z" color="#000" font-family="sans-serif" font-weight="400" overflow="visible" style="line-height:normal;font-variant-ligatures:normal;font-variant-position:normal;font-variant-caps:normal;font-variant-numeric:normal;font-variant-alternates:normal;font-feature-settings:normal;text-indent:0;text-align:start;text-decoration-line:none;text-decoration-style:solid;text-decoration-color:#000;text-transform:none;text-orientation:mixed;shape-padding:0;isolation:auto;mix-blend-mode:normal"></path><path fill="#3b3c3d" fill-rule="evenodd" style="line-height:normal;font-variant-ligatures:normal;font-variant-position:normal;font-variant-caps:normal;font-variant-numeric:normal;font-variant-alternates:normal;font-feature-settings:normal;text-indent:0;text-align:start;text-decoration-line:none;text-decoration-style:solid;text-decoration-color:#000;text-transform:none;text-orientation:mixed;shape-padding:0;isolation:auto;mix-blend-mode:normal" d="M12.492121 1042.6618l3.599471 1.4958-1.554444 6.4439H7.435567v-2.5l-.7871244 2.494-2.585915.01 1.1581984-5.4239c.096-.4469.4057701-.821.8281323-.9961l3.3515717-1.3867.2713701.1542c.7863309.4538 1.7620909.4235 2.5175809-.08zM20.339743 1043.6735l.170079.1406c.667843.5595 1.648857.5714 2.324183.023.000038 0 .000038 0 0-.01l.199181-.1542 3.478526 1.3067 1.425751 5.6215-2.220661.01-.779339-2.0091v2h-6.499994v-2l-.749971 2.0172-2.250029-.019 1.425789-5.621z" color="#000" font-family="sans-serif" font-weight="400" overflow="visible"></path><path fill="#3b3c3d" fill-rule="evenodd" d="m 11.664291,1035.0262 -0.443603,0.4471 c -0.351496,0.3542 -1.043112,0.053 -1.5399305,0.053 l -1.2552189,0.9997 c -0.2706141,-0.3791 -0.6794456,-0.5571 -1.0498771,-0.4569 -0.5285292,0.1429 -0.6340536,0.7826 -0.4575874,1.4487 0.1772598,0.6677 0.5788724,1.0207 1.1084976,1.3628 0.1783937,-0.05 0.1141417,0.098 0.1666772,0.1436 0,0.833 1.0296189,2.037 1.9835341,2.4991 0.446929,0.2166 1.035553,0.2052 1.48766,0 0.743811,-0.3379 1.874078,-1.5603 1.983496,-2.6415 0.0076,-0.077 0.102803,-0.3289 0.209386,-0.4081 0.219968,0.076 0.792113,-0.2601 0.969108,-0.9268 0.177638,-0.6669 0.201449,-1.3456 -0.328063,-1.4884 -0.373039,-0.099 -0.784101,0.082 -1.053732,0.4666 h -0.01134 c -0.496856,2e-4 -0.973417,-0.6984 -1.324951,-1.0523 z"></path><path fill="#3b3c3d" style="line-height:normal;font-variant-ligatures:normal;font-variant-position:normal;font-variant-caps:normal;font-variant-numeric:normal;font-variant-alternates:normal;font-feature-settings:normal;text-indent:0;text-align:start;text-decoration-line:none;text-decoration-style:solid;text-decoration-color:#000;text-transform:none;text-orientation:mixed;shape-padding:0;isolation:auto;mix-blend-mode:normal" d="m 14.113161,1035.2477 c -0.467528,0.4417 -0.811276,0.4287 -0.811276,0.4287 -0.478223,-0.4609 -0.828359,-0.8418 -1.282469,-1.3136 -0.09222,-0.093 -0.216945,-0.1452 -0.347717,-0.1467 v 0 c -0.135685,0 -0.266078,0.052 -0.361323,0.1485 l -0.443338,0.4492 c -0.01134,0.011 -0.08126,0.042 -0.310677,0.015 -0.229418,-0.026 -0.529399,-0.1093 -0.8788916,-0.1093 -0.112252,8e-4 -0.2207245,0.039 -0.3084095,0.1093 l -1.0996158,0.8711 c -0.1882204,-0.1221 -0.3719055,-0.2691 -0.5644346,-0.3595 0.2184567,-1.9607 1.2182929,-3.4607 3.2183055,-3.4607 1.999975,0 3,1.5 3.189846,3.3697 z" color="#000" font-family="sans-serif" font-weight="400" overflow="visible"></path><path fill="#3b3c3d" d="M20.10666 1025.1055a1.6666667 1.6666667 0 0 0-1.666658 1.6667v3.3333h3.333316a1.6666667 1.6666667 0 0 0 1.666696-1.6666 1.6666667 1.6666667 0 0 0-1.666696-1.6667 1.6666667 1.6666667 0 0 0-1.666658-1.6667zM13.750742 1022.1055a1.6666667 1.6666667 0 0 1 1.666658 1.6667v3.3333h-3.333316a1.6666667 1.6666667 0 0 1-1.666697-1.6666 1.6666667 1.6666667 0 0 1 1.666697-1.6667 1.6666667 1.6666667 0 0 1 1.666658-1.6667z"></path></g></svg>