<svg xmlns="http://www.w3.org/2000/svg" enable-background="new 0 0 98 98" viewBox="0 0 98 98" id="desert"><path d="M15.7915,17.6303H6.5849c0.5196-4.994,5.8918-7.944,10.3306-5.7241l1.1636,0.5815l0.2632-1.2739
		c0.9819-4.752,5.2197-8.2012,10.0767-8.2012c6.2957,0,10.8533,5.5603,10.2217,11.2466l-0.2329,2.0923l1.769-1.1416
		c3.0548-1.9716,6.914-0.5958,8.2468,2.4204h-21.216v2h25.2603v-2h-1.912c-1.3124-4.1486-5.8019-6.3339-9.8658-4.8877
		c-0.252-6.4221-5.6499-11.73-12.271-11.73c-5.396,0-10.1528,3.5654-11.7344,8.6323c-5.5116-1.8911-11.6048,1.9013-12.0997,7.9854H2
		v2h13.7915V17.6303z"></path><rect width="6.995" height="2" x="17.736" y="17.63"></rect><path d="M96,94.9858H83.2441V83.7146l10.0981-4.6097V74.79h2.564v-2h-2.564v-2.7275h2.564v-2h-2.564v-1.6338
		c0-0.1536-0.0258-0.3015-0.0439-0.4512l2.165-2.1645l-1.4141-1.4141l-1.6223,1.622c-0.0554-0.0626-0.0999-0.1334-0.1599-0.1923
		c-0.4609-0.4694-1.0341-0.7828-1.6577-0.9487v-2.7124h-2v2.7424c-0.6371,0.1899-1.2021,0.538-1.6442,1.0121l-1.6429-1.6432
		l-1.4141,1.4141l2.1203,2.1207c-0.0341,0.2011-0.0622,0.4045-0.0622,0.6151v7.9326l-2.7222,1.245V60.1484h2.9448v-2h-2.9448
		v-0.4165c0-0.402-0.0784-0.7825-0.1914-1.1479l2.3159-2.3159l-1.4141-1.4141l-1.9955,1.9955
		c-0.5215-0.4769-1.1646-0.821-1.8849-0.9612v-3.002h-2v3.002c-0.7204,0.1403-1.3636,0.4844-1.8851,0.9614l-1.9841-1.9844
		l-1.4141,1.4141l2.3046,2.305c-0.1129,0.3654-0.1913,0.7457-0.1913,1.1476v0.4165h-2.8682v2h2.8682v22.0633l-2.7192-1.2435v-7.9331
		c0-0.2108-0.0281-0.4143-0.0623-0.6155l2.1204-2.1204l-1.4141-1.4141l-1.6431,1.6431c-0.4423-0.4742-1.0073-0.8223-1.6445-1.0121
		v-2.7422h-2v2.7121c-0.6224,0.165-1.1928,0.4756-1.645,0.9363c-0.0646,0.0635-0.1125,0.1385-0.1717,0.2059l-1.6232-1.6229
		l-1.4141,1.4141l2.1655,2.1651c-0.0181,0.1495-0.0439,0.2972-0.0439,0.4506v1.6338h-2.5645v2h2.5645v2.7275h-2.5645v2h2.5645
		v4.3149l10.0952,4.6086v4.6658H27.73V75.2986l11.0771-5.0569V65.474h2.9097v-2h-2.9097v-3.1855h2.9097v-2h-2.9097v-1.8892
		c0-0.1809-0.0283-0.3556-0.0517-0.5314l2.4067-2.4071l-1.4141-1.4141l-1.8542,1.8546c-0.0798-0.0955-0.1489-0.1989-0.2385-0.2867
		c-0.5109-0.5203-1.1498-0.866-1.8462-1.0369v-3.0466h-2v3.079c-0.7438,0.2067-1.3951,0.6204-1.8937,1.1827l-1.8778-1.8774
		l-1.4141,1.4141l2.3582,2.3577c-0.0425,0.2318-0.072,0.4683-0.072,0.7121v8.7637L27.73,66.6173V49.413h3.3271v-2H27.73v-0.2788
		c0-0.5305-0.1089-1.0325-0.279-1.5052l2.6379-2.6379l-1.4141-1.4141l-2.3317,2.3317c-0.5734-0.5494-1.2902-0.9458-2.0902-1.1297
		V39.35h-2v3.429c-0.8,0.1839-1.5171,0.5803-2.0905,1.1298l-2.3192-2.3195l-1.4141,1.4141l2.6252,2.6257
		c-0.1702,0.4727-0.2791,0.9747-0.2791,1.5052v0.2788h-3.2427v2h3.2427v24.4498l-3.1768-1.4527v-8.7642
		c0-0.2436-0.0295-0.4798-0.0719-0.7113l2.358-2.358l-1.4141-1.4141l-1.8774,1.8774c-0.4986-0.5624-1.15-0.9762-1.8941-1.1829
		v-3.0793h-2v3.0468c-0.6956,0.1701-1.3316,0.5131-1.8335,1.0245c-0.0942,0.0925-0.1667,0.2-0.2502,0.3001l-1.8553-1.8553
		l-1.4141,1.4141l2.4072,2.4072c-0.0234,0.1756-0.0518,0.3501-0.0518,0.5308v1.8896H4.792v2h2.9097v3.1851H4.792v2h2.9097v4.7681
		l11.0737,5.0555v12.4416H3.6104v2c8.9237,0,7.0466,0.0038,92.3896,0V94.9858z M87.9663,75.6454v-9.2168
		c0-0.9307,0.7573-1.688,1.688-1.688c0.4551,0,0.876,0.1738,1.1987,0.502c0.3154,0.3101,0.4893,0.731,0.4893,1.186v11.3911
		l-8.0981,3.6966v-3.7112L87.9663,75.6454z M78.8232,55.8124h0.502c1.0581,0,1.9189,0.8608,1.9189,1.9194v36.9082h-4.3398V57.7319
		C76.9043,56.6733,77.7651,55.8124,78.8232,55.8124z M66.8091,84.4262V73.0351c0-0.4551,0.1738-0.8765,0.5015-1.1987
		c0.3101-0.3154,0.7314-0.4893,1.1865-0.4893c0.9307,0,1.688,0.7573,1.688,1.688v9.2173l4.7192,2.1581v3.7112L66.8091,84.4262z
		 M32.9097,66.4472V56.3993c0-1.0747,0.874-1.9487,1.9487-1.9487c0.5254,0,1.0122,0.2007,1.3828,0.5781
		c0.3647,0.3584,0.5659,0.8452,0.5659,1.3706v12.5571L27.73,73.1001v-4.2838L32.9097,66.4472z M9.7017,76.2035V63.6459
		c0-0.5254,0.2007-1.0122,0.5781-1.3828c0.3579-0.3647,0.8447-0.5654,1.3706-0.5654c1.0742,0,1.9482,0.874,1.9482,1.9482v10.0483
		l5.1768,2.3674v4.2839L9.7017,76.2035z M20.7754,47.1342c0-1.3657,1.1113-2.4771,2.4775-2.4771
		c1.3657,0,2.4771,1.1113,2.4771,2.4771v47.8516h-4.9546V47.1342z"></path><path d="M57.9609,47.8354c3.71,0,6.7285-3.0186,6.7285-6.7285s-3.0186-6.728-6.7285-6.728s-6.728,3.0181-6.728,6.728
		S54.251,47.8354,57.9609,47.8354z M57.9609,36.3788c2.6074,0,4.7285,2.1211,4.7285,4.728c0,2.6074-2.1211,4.7285-4.7285,4.7285
		c-2.6069,0-4.728-2.1211-4.728-4.7285C53.2329,38.4999,55.354,36.3788,57.9609,36.3788z"></path><rect width="4.948" height="2" x="46.926" y="31.546" transform="rotate(-134.999 49.4 32.546)"></rect><rect width="4.947" height="2" x="43.38" y="40.107"></rect><rect width="2" height="4.947" x="48.4" y="47.195" transform="rotate(-134.999 49.4 49.669)"></rect><rect width="2" height="4.947" x="56.961" y="50.741"></rect><rect width="2" height="4.947" x="65.523" y="47.195" transform="rotate(134.999 66.523 49.668)"></rect><rect width="4.947" height="2" x="67.595" y="40.107"></rect><rect width="4.947" height="2" x="64.049" y="31.546" transform="rotate(-45.004 66.518 32.544)"></rect><rect width="2" height="4.947" x="56.961" y="26.526"></rect><polygon points="75.529 24.282 77.599 22.212 78.957 23.574 80.374 22.161 77.6 19.382 75.53 21.452 73.464 19.382 70.687 22.16 72.101 23.574 73.463 22.212"></polygon><polygon points="84.411 10.491 81.218 13.684 82.632 15.098 84.41 13.321 86.891 15.806 89.376 13.321 91.15 15.098 92.565 13.684 89.377 10.491 86.892 12.976"></polygon><polygon points="76.861 2.563 73.868 5.557 70.88 2.564 67.179 6.265 68.593 7.679 70.879 5.393 73.867 8.387 76.86 5.394 79.141 7.678 80.556 6.265"></polygon></svg>