<svg xmlns="http://www.w3.org/2000/svg" viewBox="0 0 64 64" id="girl"><path d="M32.01 64c-9.86 0-19.72-2.21-29.52-6.63a.964.964 0 0 1-.55-1.09C3.77 47.87 7 43.07 18.8 41.83c1.04-.1 2.68-.92 3.57-1.77.39-.37 1-.36 1.37.03.37.39.36 1-.03 1.37-1.22 1.17-3.25 2.16-4.72 2.3C7.75 44.94 5.44 49.72 4.01 55.93c18.59 8.17 37.42 8.17 55.98 0-1.41-6.2-3.71-10.98-15.03-12.17-1.3-.13-3.19-1.02-4.27-1.99-.04-.03-.08-.06-.12-.1a4.41 4.41 0 0 1-.32-.34.977.977 0 0 1 .09-1.37.96.96 0 0 1 1.37.09c.05.06.11.12.17.17.02.02.04.04.06.05.75.7 2.32 1.46 3.23 1.55 11.8 1.24 15.13 6.25 16.89 14.46.1.45-.13.9-.55 1.09C51.73 61.79 41.87 64 32.01 64zm-.02-24.55c-2.81 0-5.5-1.07-7.79-3.09a.977.977 0 0 1-.09-1.37c.35-.4.97-.44 1.37-.09 1.93 1.7 4.19 2.6 6.51 2.6 2.9 0 5.69-1.41 7.85-3.97.35-.41.96-.46 1.37-.11.41.34.46.96.12 1.37-2.54 3-5.85 4.66-9.34 4.66z"></path><path d="M13.56 61.38h-.04a.966.966 0 0 1-.93-1.01c.27-6.88-.69-12.42-1.54-15.85a.976.976 0 0 1 .71-1.18.984.984 0 0 1 1.18.71c.88 3.56 1.88 9.29 1.6 16.4-.03.52-.46.93-.98.93zm31.01-7.17H19.43c-.5 0-.92-.38-.97-.88-.41-4.3-1.22-7.87-1.84-10.12a.97.97 0 0 1 1.87-.51c.59 2.16 1.37 5.52 1.81 9.57h23.39c.35-3.19.97-6.48 1.8-9.56.14-.52.67-.83 1.19-.68.52.14.82.67.69 1.19a62.47 62.47 0 0 0-1.83 10.12c-.05.49-.47.87-.97.87zm5.85 6.22h-.97c-.28-7.03.71-12.8 1.6-16.39.13-.52.65-.84 1.17-.71.52.13.84.65.71 1.17-.85 3.47-1.81 9.05-1.54 15.88l-.97.05z"></path><path d="M24.6 42.45c-.13 0-.27-.03-.4-.08-.08-.03-1.89-.85-3.84-1.88a8.333 8.333 0 0 1-4.43-7.39V17C15.93 8.11 22.68.66 31.3.05a16.63 16.63 0 0 1 12.94 4.81c3.13 3.13 4.85 7.3 4.85 11.73v20.56c0 .26-.11.52-.3.7-2.59 2.5-6.94 3.63-8.58 4.05-.17.04-.3.08-.39.1-.43.13-.9-.06-1.12-.45a.96.96 0 0 1 .19-1.19c.66-.61 1.14-1.17 1.47-1.64l-1.58.06c-.39.03-.75-.21-.92-.56a.96.96 0 0 1 .17-1.06l1.92-2.07-.89-.1a.977.977 0 0 1-.81-.65.972.972 0 0 1 .25-1.01c4.05-3.88 4.41-11.47 4.35-14.94l-.45.35c-.21.16-.48.24-.75.19-.27-.04-.5-.2-.65-.42l-.93-1.39-1.3 1.23c-.21.2-.49.29-.77.26a.996.996 0 0 1-.7-.42l-1-1.48-1.12.62c-.43.24-.96.12-1.25-.27l-.9-1.22-2.37 1.43c-.4.25-.93.16-1.24-.2l-1.15-1.34-1.81 1.93c-.34.36-.9.41-1.3.1l-1.8-1.39c-.36 2.93-.67 9.32 2.58 13.47.27.34.28.81.02 1.16-.25.35-.71.49-1.11.35l-.82-.29c.75 1.01 1.85 2.24 3.36 3.37.28.21.43.57.38.92a.96.96 0 0 1-.63.77c-.04.02-.64.23-1.48.38.31.34.65.74 1 1.17.23.28.29.67.15 1-.14.34-.46.56-.82.59l-1.26.09.74 1.76c.16.37.07.79-.21 1.07-.17.18-.41.27-.66.27zm7.9-40.51c-.35 0-.7.01-1.05.04-7.61.54-13.57 7.14-13.57 15.02v16.1a6.4 6.4 0 0 0 3.4 5.68c.5.26.99.51 1.44.74l-.28-.65c-.12-.29-.1-.62.07-.88.16-.27.44-.44.76-.46l.68-.05c-.64-.7-1.06-1.13-1.07-1.14a.976.976 0 0 1-.19-1.11c.18-.37.57-.59.98-.54.34.04.69.03 1.03 0-2.66-2.49-3.71-4.93-3.76-5.05a.955.955 0 0 1 .19-1.04c.26-.28.67-.38 1.03-.25l.8.28c-2.91-6.1-1.3-13.85-1.22-14.23.07-.32.3-.59.61-.71s.66-.06.93.14l2.41 1.85 1.95-2.07c.19-.2.45-.3.73-.31.28.01.53.13.71.34l1.32 1.53 2.42-1.46c.43-.26.98-.15 1.28.25l.92 1.24 1.15-.64c.44-.24.99-.11 1.27.31l.85 1.27 1.3-1.23c.21-.2.49-.29.78-.26.28.03.54.19.7.42l.99 1.48 1.1-.86c.28-.22.66-.26.98-.12.32.14.55.45.58.8.05.47.99 10.77-3.57 16.88l.96.11c.36.04.67.28.8.63.13.34.05.73-.2 1l-1.64 1.77.97-.04c.34-.02.66.15.85.44.19.28.21.65.06.95-.1.23-.27.63-.59 1.14 1.59-.55 3.46-1.37 4.8-2.52V16.58c0-3.92-1.52-7.59-4.29-10.36A14.65 14.65 0 0 0 32.5 1.94zm15.63 35.2z"></path></svg>