<svg xmlns="http://www.w3.org/2000/svg" viewBox="0 0 64 64" id="island"><path d="M32.571,42.576c-.436,0-.866.024-1.3.038C27.631,38.075,22.03,29.153,22.558,17.8c5.544,4.758,4.383,11.95,4.321,12.307a1,1,0,0,0,1.536,1.007c.186-.123,4.569-3.058,5.505-7.78a9.881,9.881,0,0,0-1.8-7.649,8.492,8.492,0,0,0-3.244-2.919,14.957,14.957,0,0,1,7.637,3.051,1,1,0,0,0,.64.232.985.985,0,0,0,.451-.108,1,1,0,0,0,.547-.952c-.013-.222-.374-5.485-4-8.65a9.866,9.866,0,0,0-7.528-2.253,8.211,8.211,0,0,0-7.28,5.284,8.215,8.215,0,0,0-7.281-5.284A9.878,9.878,0,0,0,4.534,6.342C.907,9.507.547,14.77.533,14.992a1,1,0,0,0,.548.953,1,1,0,0,0,1.093-.126,15.262,15.262,0,0,1,7.559-3.006,8.5,8.5,0,0,0-3.168,2.875,9.886,9.886,0,0,0-1.8,7.649c.937,4.722,5.32,7.657,5.506,7.78a1,1,0,0,0,1.535-1.007c-.066-.38-1.376-8.492,5.461-13.183-1.889,5.059-4.721,16.371,1.5,28.278A27.192,27.192,0,0,0,5.51,55.937a5.339,5.339,0,0,0-3.367-1.118v2a4.055,4.055,0,0,1,3.109,1.547,6,6,0,0,0,4.5,2.1,6,6,0,0,0,4.5-2.1,3.9,3.9,0,0,1,6.218,0,5.853,5.853,0,0,0,8.991,0,3.9,3.9,0,0,1,6.223,0,5.854,5.854,0,0,0,8.992,0,3.9,3.9,0,0,1,6.225,0,5.859,5.859,0,0,0,9,0A4.062,4.062,0,0,1,63,56.819v-2a5.347,5.347,0,0,0-3.368,1.117C54.674,47.781,44.243,42.576,32.571,42.576Zm-2.1-25.765a7.973,7.973,0,0,1,1.493,6.125,10.269,10.269,0,0,1-2.97,5.091,15.237,15.237,0,0,0-7.412-13.369C23.845,13.769,27.857,12.966,30.468,16.811ZM26.773,6.083a7.991,7.991,0,0,1,6.055,1.758,10.278,10.278,0,0,1,2.935,5.111,16.832,16.832,0,0,0-8.055-2.2,14.431,14.431,0,0,0-7.23,1.966C20.837,10.309,22.138,6.431,26.773,6.083ZM5.849,7.849a7.647,7.647,0,0,1,5.2-1.8c.282,0,.57.012.864.033,4.635.348,5.936,4.226,6.3,6.634a15.239,15.239,0,0,0-15.29.238A10.273,10.273,0,0,1,5.849,7.849ZM9.7,28.027a10.268,10.268,0,0,1-2.969-5.091,7.97,7.97,0,0,1,1.493-6.125,6.141,6.141,0,0,1,5.313-2.889,10.006,10.006,0,0,1,3.576.736A15.238,15.238,0,0,0,9.7,28.027ZM19.505,42.1h2.087v-2H18.733c-3.86-11.127-.189-21.185,1.091-24.125q.427.22.823.457a35.263,35.263,0,0,0,1.889,14.6H20.489v2h2.8a44.149,44.149,0,0,0,5.571,9.736,36.692,36.692,0,0,0-8.2,1.735Q20.019,43.3,19.505,42.1Zm32.77,14.824a5.856,5.856,0,0,0-8.994,0,3.9,3.9,0,0,1-6.222,0,5.855,5.855,0,0,0-8.993,0,3.9,3.9,0,0,1-6.22,0,5.852,5.852,0,0,0-8.99,0,4.053,4.053,0,0,1-3.109,1.547A3.628,3.628,0,0,1,7.034,57.3c4.513-7.752,14.4-12.721,25.537-12.721S53.6,49.544,58.109,57.3a3.64,3.64,0,0,1-2.72,1.176A4.065,4.065,0,0,1,52.275,56.924Z"></path></svg>